#!OML:ASF G:\JayActor3\Patient Classification 1\Patient 1\Session 2\male.ASF
:FULLY-SPECIFIED
:DEGREES
3674
root -40.1995 16.7106 -4.87417 -355.399 54.8351 1.5239
lowerback 4.79867 0.229954 3.68389
upperback 4.01896 0.477366 1.38817
thorax 1.46442 0.32776 -0.652918
lowerneck -11.6561 2.36361 4.20205
upperneck 21.3081 3.40421 -3.63449
head 8.69802 1.63527 -1.54966
rclavicle 3.51849e-014 2.22639e-014
rhumerus -41.1282 5.91445 -86.4014
rradius 51.0508
rwrist -4.73631
rhand -28.7184 8.40793
rfingers 7.12502
rthumb -2.07973 -21.5617
lclavicle 3.51849e-014 2.22639e-014
lhumerus -40.4023 -35.4645 89.7978
lradius 44.5609
lwrist 20.1049
lhand -20.621 18.0406
lfingers 7.12502
lthumb 5.74025 47.9429
rfemur -17.2929 -4.79499 22.7535
rtibia 39.0977
rfoot -43.5844 -29.0241
rtoes 29.8875
lfemur -18.8745 16.4798 -22.2593
ltibia 38.3491
lfoot -20.1331 15.5557
ltoes -7.9256
3675
root -40.1993 16.7138 -4.87741 -355.321 55.6167 1.49916
lowerback 4.74676 0.257652 3.65991
upperback 3.99241 0.511772 1.38446
thorax 1.46694 0.344257 -0.644259
lowerneck -11.6466 2.3339 4.15787
upperneck 21.2593 3.36852 -3.61487
head 8.67688 1.61788 -1.53938
rclavicle -3.89618e-014 3.18055e-015
rhumerus -41.1397 5.91019 -86.3804
rradius 51.0539
rwrist -4.71366
rhand -28.6589 8.4946
rfingers 7.12502
rthumb -2.02227 -21.4756
lclavicle -3.89618e-014 3.18055e-015
lhumerus -40.5574 -35.406 89.9637
lradius 44.5737
lwrist 20.1551
lhand -20.4398 18.0536
lfingers 7.12502
lthumb 5.91526 47.951
rfemur -17.3414 -4.97016 22.8311
rtibia 39.0988
rfoot -44.1476 -29.1787
rtoes 30.1242
lfemur -18.8794 16.6539 -22.4137
ltibia 37.8847
lfoot -20.028 15.4781
ltoes -7.61469
3676
root -40.1974 16.7168 -4.88186 -355.274 56.4332 1.47127
lowerback 4.71162 0.266208 3.65115
upperback 3.97664 0.522078 1.37832
thorax 1.47054 0.349355 -0.645833
lowerneck -11.6472 2.30815 4.12051
upperneck 21.21 3.33632 -3.5956
head 8.65774 1.60241 -1.52989
rclavicle -5.1684e-015 1.03368e-014
rhumerus -41.1453 5.91121 -86.3613
rradius 51.0643
rwrist -4.70236
rhand -28.6003 8.58822
rfingers 7.12502
rthumb -1.9657 -21.3825
lclavicle -5.1684e-015 1.03368e-014
lhumerus -40.7208 -35.3334 90.1195
lradius 44.6089
lwrist 20.1776
lhand -20.2248 18.0992
lfingers 7.12502
lthumb 6.12281 47.9908
rfemur -17.3418 -5.19704 22.9012
rtibia 39.0798
rfoot -44.7368 -29.2694
rtoes 30.4123
lfemur -18.847 16.7484 -22.5466
ltibia 37.4094
lfoot -19.9226 15.3354
ltoes -7.02961
3677
root -40.1938 16.7196 -4.88717 -355.248 57.2352 1.43316
lowerback 4.68539 0.27312 3.64543
upperback 3.96557 0.53071 1.37178
thorax 1.47403 0.353783 -0.64949
lowerneck -11.6525 2.28448 4.0751
upperneck 21.1578 3.30467 -3.56081
head 8.63819 1.58798 -1.5137
rclavicle 8.09054e-014 -3.97569e-015
rhumerus -41.1477 5.9234 -86.3469
rradius 51.0797
rwrist -4.68534
rhand -28.5744 8.63931
rfingers 7.12502
rthumb -1.94069 -21.3316
lclavicle 8.09054e-014 -3.97569e-015
lhumerus -40.8963 -35.2548 90.275
lradius 44.6566
lwrist 20.1761
lhand -19.9603 18.1905
lfingers 7.12502
lthumb 6.37818 48.0745
rfemur -17.3215 -5.45379 22.9657
rtibia 39.0531
rfoot -45.3077 -29.3129
rtoes 30.7006
lfemur -18.7928 16.7988 -22.6605
ltibia 36.9319
lfoot -19.8114 15.1935
ltoes -6.27301
3678
root -40.1894 16.7223 -4.89319 -355.239 58.0149 1.38071
lowerback 4.64972 0.280515 3.6445
upperback 3.96274 0.539502 1.3607
thorax 1.4914 0.358773 -0.660347
lowerneck -11.6602 2.26534 4.03328
upperneck 21.0999 3.27566 -3.51562
head 8.61721 1.57597 -1.4943
rclavicle 3.91606e-014 -4.77083e-015
rhumerus -41.1357 5.93671 -86.3408
rradius 51.0935
rwrist -4.67557
rhand -28.5571 8.68131
rfingers 7.12502
rthumb -1.92392 -21.2898
lclavicle 3.91606e-014 -4.77083e-015
lhumerus -41.0772 -35.1879 90.4261
lradius 44.7076
lwrist 20.144
lhand -19.7015 18.3053
lfingers 7.12502
lthumb 6.62796 48.1816
rfemur -17.3072 -5.82574 23.024
rtibia 39.0343
rfoot -45.7383 -29.3416
rtoes 30.88
lfemur -18.7273 16.8139 -22.753
ltibia 36.4606
lfoot -19.7074 15.0506
ltoes -5.34744
3679
root -40.1844 16.7248 -4.89991 -355.248 58.7648 1.30532
lowerback 4.61301 0.29229 3.64464
upperback 3.9561 0.554103 1.35013
thorax 1.50566 0.366543 -0.671459
lowerneck -11.6113 2.23494 3.94904
upperneck 20.9997 3.2314 -3.43055
head 8.56944 1.55802 -1.45641
rclavicle -1.11319e-014 -1.35174e-014
rhumerus -41.1228 5.95103 -86.3393
rradius 51.1011
rwrist -4.66044
rhand -28.5551 8.68587
rfingers 7.12502
rthumb -1.92207 -21.2852
lclavicle -1.11319e-014 -1.35174e-014
lhumerus -41.2625 -35.1326 90.5824
lradius 44.7376
lwrist 20.114
lhand -19.5336 18.3162
lfingers 7.12502
lthumb 6.79004 48.1873
rfemur -17.3086 -6.28025 23.084
rtibia 39.0264
rfoot -46.0456 -29.375
rtoes 30.952
lfemur -18.662 16.8102 -22.8248
ltibia 36.009
lfoot -19.5999 14.9121
ltoes -4.48145
3680
root -40.1781 16.7267 -4.90728 -355.272 59.4921 1.21691
lowerback 4.57658 0.304769 3.64331
upperback 3.94535 0.56962 1.33894
thorax 1.51555 0.374587 -0.682447
lowerneck -11.5156 2.19617 3.83249
upperneck 20.8703 3.17603 -3.31467
head 8.50186 1.53589 -1.40434
rclavicle 2.20651e-014 0
rhumerus -41.1214 5.97434 -86.3423
rradius 51.1075
rwrist -4.64543
rhand -28.5592 8.67707
rfingers 7.12502
rthumb -1.92602 -21.294
lclavicle 2.20651e-014 0
lhumerus -41.4538 -35.0978 90.7522
lradius 44.7374
lwrist 20.0992
lhand -19.3602 18.3236
lfingers 7.12502
lthumb 6.95746 48.1893
rfemur -17.3129 -6.73927 23.1427
rtibia 39.0316
rfoot -46.3029 -29.4403
rtoes 30.9483
lfemur -18.5898 16.7793 -22.8797
ltibia 35.5854
lfoot -19.4936 14.7519
ltoes -3.74336
